<?xml version="1.0" encoding="UTF-8" standalone="no"?>
<!-- Created with Inkscape (http://www.inkscape.org/) -->

<svg
   width="49.925152mm"
   height="47.009815mm"
   viewBox="0 0 49.925152 47.009815"
   version="1.1"
   id="svg1"
   xmlns:xlink="http://www.w3.org/1999/xlink"
   xmlns="http://www.w3.org/2000/svg"
   xmlns:svg="http://www.w3.org/2000/svg">
  <defs
     id="defs1">
    <linearGradient
       id="linearGradient12">
      <stop
         style="stop-color:#736543;stop-opacity:1;"
         offset="0"
         id="stop9" />
      <stop
         style="stop-color:#a67807;stop-opacity:1;"
         offset="0.79580796"
         id="stop10" />
      <stop
         style="stop-color:#745405;stop-opacity:1;"
         offset="0.89999998"
         id="stop11" />
      <stop
         style="stop-color:#6f5005;stop-opacity:1;"
         offset="1"
         id="stop12" />
    </linearGradient>
    <linearGradient
       id="linearGradient4">
      <stop
         style="stop-color:#85975a;stop-opacity:1;"
         offset="0"
         id="stop5" />
      <stop
         style="stop-color:#737a61;stop-opacity:0.98039216;"
         offset="0.80371982"
         id="stop8" />
      <stop
         style="stop-color:#57633b;stop-opacity:0.93725491;"
         offset="1"
         id="stop7" />
    </linearGradient>
    <linearGradient
       id="linearGradient1">
      <stop
         style="stop-color:#ae7e08;stop-opacity:1;"
         offset="0"
         id="stop1" />
      <stop
         style="stop-color:#a67807;stop-opacity:1;"
         offset="0.63345504"
         id="stop4" />
      <stop
         style="stop-color:#745405;stop-opacity:1;"
         offset="0.87938738"
         id="stop3" />
      <stop
         style="stop-color:#6f5005;stop-opacity:1;"
         offset="1"
         id="stop2" />
    </linearGradient>
    <radialGradient
       xlink:href="#linearGradient12"
       id="radialGradient2"
       cx="69.05706"
       cy="53.022701"
       fx="69.05706"
       fy="53.022701"
       r="24.962576"
       gradientTransform="matrix(0.93084117,0.93579212,-0.79414448,0.78994294,46.88359,-53.485261)"
       gradientUnits="userSpaceOnUse" />
    <radialGradient
       xlink:href="#linearGradient4"
       id="radialGradient6"
       cx="70.449417"
       cy="52.97073"
       fx="70.449417"
       fy="52.97073"
       r="18.064644"
       gradientTransform="matrix(0.92670009,-0.10893743,0.05172365,0.43999852,0.7842193,33.876304)"
       gradientUnits="userSpaceOnUse" />
    <radialGradient
       xlink:href="#linearGradient4"
       id="radialGradient6-4"
       cx="70.449417"
       cy="52.97073"
       fx="70.449417"
       fy="52.97073"
       r="18.064644"
       gradientTransform="matrix(0.95313782,-0.09382079,0.05319927,0.37894238,-1.2259689,36.274195)"
       gradientUnits="userSpaceOnUse" />
    <radialGradient
       xlink:href="#linearGradient1"
       id="radialGradient12"
       gradientUnits="userSpaceOnUse"
       gradientTransform="matrix(0.83434931,0.86438852,-0.71182274,0.72966805,49.247867,-45.192526)"
       cx="69.05706"
       cy="53.022701"
       fx="69.05706"
       fy="53.022701"
       r="24.962576" />
  </defs>
  <g
     id="layer1"
     transform="translate(-29.148934,-20.756611)">
    <g
       id="g12"
       transform="translate(-28.860368,-13.141775)">
      <g
         id="g8"
         transform="matrix(1,0,0,1.2158558,14.043661,-2.8274577)">
        <ellipse
           style="fill:url(#radialGradient2);stroke-width:0.765;stroke-dasharray:0.573749, 0.765, 0.3825, 0.765"
           id="path1"
           cx="69.05706"
           cy="53.022701"
           rx="24.962576"
           ry="23.504908"
           transform="matrix(1,0,0,0.82246596,-0.12884194,5.9283748)" />
        <ellipse
           style="fill:url(#radialGradient12);stroke-width:0.696086;stroke-dasharray:0.522063, 0.696086, 0.348042, 0.696086"
           id="path1-6"
           cx="69.122818"
           cy="53.188576"
           rx="22.374931"
           ry="21.711416"
           transform="matrix(1,0,0,0.82246596,-0.12884194,5.9283748)" />
        <path
           style="fill:url(#radialGradient6);stroke-width:0.765;stroke-dasharray:0.573749, 0.765, 0.3825, 0.765"
           d="m 85.091412,55.846931 c 2.134335,-3.887092 2.674086,-8.234815 -0.182211,-14.303372 -0.973395,-2.0681 -1.962053,4.719335 -5.010736,5.10184 -3.263296,0.409431 -5.737788,-4.31936 -12.299079,-4.373006 -4.274261,-0.03495 -6.438865,1.044891 -9.201533,2.642023 -2.231164,1.289863 -7.621882,2.798162 -7.652761,5.375154 -0.03525,2.941735 4.717714,3.762239 7.288343,5.192943 2.639285,1.468915 8.319353,3.148601 11.114726,2.004296 8.080961,-3.307996 7.247971,-5.937067 11.023619,-6.195092 1.272546,-0.08696 3.82147,6.555208 4.919632,4.555214 z"
           id="path4" />
        <path
           style="fill:url(#radialGradient6-4);stroke-width:0.719997;stroke-dasharray:0.539997, 0.719997, 0.359998, 0.719997"
           d="m 85.486413,55.19608 c 2.195225,-3.347702 2.750375,-7.092115 -0.187409,-12.318572 -1.001165,-1.781122 -2.018028,4.064459 -5.153687,4.393886 -3.356394,0.352616 -5.90148,-3.719987 -12.649957,-3.766189 -4.396201,-0.0301 -6.622559,0.899898 -9.464043,2.275405 -2.294816,1.110876 -7.839325,2.409876 -7.871085,4.629273 -0.03626,2.533527 4.852305,3.240174 7.496271,4.472348 2.714581,1.265081 8.556695,2.711687 11.431816,1.726171 8.311502,-2.848964 7.454748,-5.113214 11.338111,-5.335434 1.30885,-0.07489 3.930492,5.645578 5.059983,3.923112 z"
           id="path4-5" />
      </g>
      <path
         style="fill:#967817;fill-opacity:1;stroke-width:0.765;stroke-dasharray:0.573749, 0.765, 0.3825, 0.765"
         d="m 65.368783,108.68458 c 2.143748,0.24811 10.423927,2.66977 12.579979,2.76282 7.370857,0.94692 14.603798,0.14009 21.902957,-1.03072 2.732691,-0.46315 5.512201,-2.75099 8.116981,-1.80378 4.37542,1.5911 8.55045,6.42482 8.5035,11.08033 -0.0388,3.84973 -2.13549,8.00486 -7.21509,9.01886 -15.271526,3.04853 -25.518685,7.03591 -39.460382,1.20914 -2.775193,-1.15986 -12.957344,-4.11218 -11.540094,-8.10625 1.417251,-3.99407 3.242803,-13.57823 7.112149,-13.1304 z"
         id="path12" />
      <g
         id="g14"
         transform="translate(3.607546,-13.399457)">
        <path
           style="fill:#a58211;fill-opacity:1;stroke-width:0.492406;stroke-dasharray:0.369304, 0.492406, 0.246203, 0.492406"
           d="m 214.90806,97.271402 c 5.01588,-4.79055 -8.03142,-11.48503 -8.19741,-18.419075 -0.16635,-6.949118 12.82986,-17.181917 7.25915,-21.339459 -6.6489,-4.962229 -12.76707,12.293788 -20.99344,13.370123 -5.77421,0.755495 -11.01957,-3.806191 -16.65402,-5.277679 -4.48066,-1.170167 -8.97448,-2.732126 -13.60468,-2.814764 -6.06615,-0.108267 -12.5193,0.332476 -17.94411,3.049326 -4.92025,2.464152 -9.3409,6.538274 -11.96275,11.376333 -1.74265,3.215695 -2.98821,7.270175 -1.99379,10.789925 1.302,4.60841 5.06248,9.19342 9.61711,10.67263 8.26851,2.685398 13.0912,3.619188 22.28354,3.049328 8.61469,-0.53404 13.67887,-4.111588 20.28975,-8.444278 3.14473,-2.06101 7.61857,-5.619 11.37633,-5.7468 8.05373,-0.27393 14.69678,15.300098 20.52432,9.73439 z"
           id="path13-3" />
        <path
           style="fill:#dbbf16;fill-opacity:0.582633;stroke-width:0.444492;stroke-dasharray:0.333368, 0.444492, 0.222246, 0.444492"
           d="m 212.67925,94.679273 c 4.73523,-4.13497 -7.58203,-9.913319 -7.73874,-15.898456 -0.15705,-5.998146 12.11199,-14.830609 6.85299,-18.4192 -6.27689,-4.283157 -12.05273,10.61141 -19.81882,11.54045 -5.45111,0.652107 -10.40298,-3.285321 -15.72216,-4.55544 -4.22996,-1.010032 -8.47234,-2.35824 -12.84347,-2.429569 -5.72673,-0.09345 -11.81881,0.286978 -16.94009,2.632032 -4.64494,2.126938 -8.81825,5.643525 -11.2934,9.819506 -1.64514,2.775631 -2.82102,6.275264 -1.88223,9.313349 1.22914,3.977758 4.77922,7.935318 9.079,9.212108 7.80587,2.3179 12.35872,3.12391 21.03672,2.63203 8.13268,-0.46096 12.9135,-3.54893 19.15448,-7.2887 2.96877,-1.77897 7.19229,-4.850047 10.7398,-4.960367 7.6031,-0.236436 13.87445,13.206317 19.37592,8.402257 z"
           id="path13" />
        <path
           style="fill:#ffffff;fill-opacity:0.879552;stroke-width:0.765;stroke-dasharray:0.573749, 0.765, 0.3825, 0.765"
           d="m 137.18337,78.008032 c 0.1013,-1.580564 2.42536,-3.204233 3.91749,-3.735276 1.95891,-0.697171 5.36168,-1.222585 7.10613,-0.0911 1.45597,0.944363 1.19445,5.513722 0,6.103988 -1.63351,0.807237 -5.11956,1.258013 -6.83282,0.63773 -1.33809,-0.484457 -4.28182,-1.495156 -4.1908,-2.915338 z"
           id="path14" />
      </g>
    </g>
  </g>
</svg>
